<mxfile host="app.diagrams.net" agent="Mozilla/5.0 (Windows NT 10.0; Win64; x64) AppleWebKit/537.36 (KHTML, like Gecko) Chrome/139.0.0.0 Safari/537.36" version="28.0.9">
  <diagram name="Page-1" id="MV125QoWya4dPm9cb3tA">
    <mxGraphModel grid="1" page="0" gridSize="10" guides="1" tooltips="1" connect="1" arrows="1" fold="1" pageScale="1" pageWidth="400" pageHeight="500" math="0" shadow="0">
      <root>
        <mxCell id="0" />
        <mxCell id="1" parent="0" />
        <mxCell id="yrST7zOmOCH9EI3Kk_xx-1" value="Guides" style="" parent="0" />
        <mxCell id="yrST7zOmOCH9EI3Kk_xx-2" value="" style="rounded=0;whiteSpace=wrap;html=1;rotation=90;labelBackgroundColor=none;strokeColor=none;horizontal=1;fontSize=60;opacity=20;movable=1;resizable=1;rotatable=1;deletable=1;editable=1;locked=0;connectable=1;fillColor=#182E3E;fontColor=light-dark(#FFFFFF,#000000);" vertex="1" parent="yrST7zOmOCH9EI3Kk_xx-1">
          <mxGeometry x="350" y="252.5" width="540" height="315" as="geometry" />
        </mxCell>
        <mxCell id="koBwlEyLXra22EPQAQiB-32" value="" style="rounded=0;whiteSpace=wrap;html=1;rotation=90;labelBackgroundColor=none;strokeColor=none;horizontal=1;fontSize=60;opacity=20;movable=1;resizable=1;rotatable=1;deletable=1;editable=1;locked=0;connectable=1;fillColor=#182E3E;fontColor=light-dark(#FFFFFF,#000000);" vertex="1" parent="yrST7zOmOCH9EI3Kk_xx-1">
          <mxGeometry x="726" y="315" width="540" height="190" as="geometry" />
        </mxCell>
        <mxCell id="koBwlEyLXra22EPQAQiB-33" value="" style="rounded=0;whiteSpace=wrap;html=1;rotation=90;labelBackgroundColor=none;strokeColor=none;horizontal=1;fontSize=60;opacity=20;movable=1;resizable=1;rotatable=1;deletable=1;editable=1;locked=0;connectable=1;fillColor=#182E3E;fontColor=light-dark(#FFFFFF,#000000);" vertex="1" parent="yrST7zOmOCH9EI3Kk_xx-1">
          <mxGeometry x="1371" y="201.25" width="540" height="417.5" as="geometry" />
        </mxCell>
        <mxCell id="koBwlEyLXra22EPQAQiB-132" value="" style="rounded=0;whiteSpace=wrap;html=1;rotation=90;labelBackgroundColor=none;strokeColor=none;horizontal=1;fontSize=60;opacity=20;movable=1;resizable=1;rotatable=1;deletable=1;editable=1;locked=0;connectable=1;fillColor=#182E3E;fontColor=light-dark(#FFFFFF,#000000);" vertex="1" parent="yrST7zOmOCH9EI3Kk_xx-1">
          <mxGeometry x="1560.25" y="569.25" width="159.5" height="417.5" as="geometry" />
        </mxCell>
        <mxCell id="koBwlEyLXra22EPQAQiB-5" value="Diagram" parent="0" />
        <mxCell id="koBwlEyLXra22EPQAQiB-19" value="&lt;font&gt;&lt;span&gt;Edge Device&lt;/span&gt;&lt;/font&gt;" style="text;strokeColor=none;align=center;fillColor=none;html=1;verticalAlign=middle;whiteSpace=wrap;rounded=0;fontFamily=Helvetica;fontSize=19;labelBackgroundColor=none;fontStyle=1;fontColor=light-dark(#FFFFFF,#000000);" vertex="1" parent="koBwlEyLXra22EPQAQiB-5">
          <mxGeometry x="450" y="90" width="340" height="30" as="geometry" />
        </mxCell>
        <mxCell id="koBwlEyLXra22EPQAQiB-22" value="&lt;font&gt;AWS Cloud&lt;/font&gt;" style="text;strokeColor=none;align=center;fillColor=none;html=1;verticalAlign=middle;whiteSpace=wrap;rounded=0;fontFamily=Helvetica;fontSize=19;labelBackgroundColor=none;fontStyle=1;fontColor=light-dark(#FFFFFF,#000000);" vertex="1" parent="koBwlEyLXra22EPQAQiB-5">
          <mxGeometry x="1461" y="90" width="360" height="30" as="geometry" />
        </mxCell>
        <mxCell id="koBwlEyLXra22EPQAQiB-23" value="&lt;font&gt;&lt;span&gt;Broker&lt;/span&gt;&lt;/font&gt;" style="text;strokeColor=none;align=center;fillColor=none;html=1;verticalAlign=middle;whiteSpace=wrap;rounded=0;fontFamily=Helvetica;fontSize=19;labelBackgroundColor=none;fontStyle=1;fontColor=light-dark(#FFFFFF,#000000);" vertex="1" parent="koBwlEyLXra22EPQAQiB-5">
          <mxGeometry x="941" y="90" width="110" height="30" as="geometry" />
        </mxCell>
        <mxCell id="koBwlEyLXra22EPQAQiB-51" value="&lt;div&gt;&lt;br&gt;&lt;/div&gt;&lt;div&gt;&lt;br&gt;&lt;/div&gt;&lt;div&gt;&lt;br&gt;&lt;/div&gt;&lt;div&gt;&lt;br&gt;&lt;/div&gt;MQTT Broker&lt;div&gt;&lt;ul&gt;&lt;li&gt;Mosquitto (local) or AWS IoT Core (managed)&lt;/li&gt;&lt;/ul&gt;&lt;/div&gt;" style="rounded=0;whiteSpace=wrap;html=1;strokeWidth=1.5;align=left;verticalAlign=middle;fontFamily=Helvetica;fontSize=12;labelBackgroundColor=none;fontStyle=0;fillColor=#182E3E;strokeColor=#FFFFFF;fontColor=light-dark(#FFFFFF,#000000);" vertex="1" parent="koBwlEyLXra22EPQAQiB-5">
          <mxGeometry x="916" y="161" width="154" height="149" as="geometry" />
        </mxCell>
        <mxCell id="koBwlEyLXra22EPQAQiB-56" value="sensor/data" style="edgeStyle=orthogonalEdgeStyle;shape=connector;rounded=0;orthogonalLoop=1;jettySize=auto;html=1;entryX=0;entryY=0.5;entryDx=0;entryDy=0;strokeWidth=1.5;align=center;verticalAlign=middle;fontFamily=Helvetica;fontSize=12;fontColor=light-dark(#FFFFFF,#000000);labelBackgroundColor=none;endArrow=block;endFill=0;strokeColor=#23445D;" edge="1" parent="koBwlEyLXra22EPQAQiB-5" source="koBwlEyLXra22EPQAQiB-36" target="koBwlEyLXra22EPQAQiB-51">
          <mxGeometry x="0.8666" y="16" relative="1" as="geometry">
            <Array as="points">
              <mxPoint x="850" y="620" />
              <mxPoint x="850" y="236" />
              <mxPoint x="910" y="236" />
            </Array>
            <mxPoint as="offset" />
          </mxGeometry>
        </mxCell>
        <mxCell id="koBwlEyLXra22EPQAQiB-59" value="sensor/alerts" style="edgeStyle=orthogonalEdgeStyle;shape=connector;rounded=0;orthogonalLoop=1;jettySize=auto;html=1;strokeWidth=1.5;align=center;verticalAlign=middle;fontFamily=Helvetica;fontSize=12;fontColor=light-dark(#FFFFFF,#000000);labelBackgroundColor=none;endArrow=block;endFill=0;exitX=1;exitY=0.75;exitDx=0;exitDy=0;entryX=0;entryY=0.25;entryDx=0;entryDy=0;strokeColor=#23445D;" edge="1" parent="koBwlEyLXra22EPQAQiB-5" source="koBwlEyLXra22EPQAQiB-36" target="koBwlEyLXra22EPQAQiB-51">
          <mxGeometry x="0.8474" y="8" relative="1" as="geometry">
            <mxPoint x="760" y="645" as="sourcePoint" />
            <mxPoint x="870" y="290" as="targetPoint" />
            <mxPoint as="offset" />
          </mxGeometry>
        </mxCell>
        <mxCell id="koBwlEyLXra22EPQAQiB-41" value="Fallback: threshold rules&lt;div&gt;&lt;ul&gt;&lt;li&gt;&lt;span style=&quot;background-color: transparent;&quot;&gt;If ML unavailable&lt;/span&gt;&lt;/li&gt;&lt;/ul&gt;&lt;/div&gt;" style="rounded=0;whiteSpace=wrap;html=1;strokeWidth=2;align=left;verticalAlign=middle;fontFamily=Helvetica;fontSize=12;labelBackgroundColor=none;dashed=1;opacity=60;fillColor=#182E3E;strokeColor=#FFFFFF;fontColor=light-dark(#FFFFFF,#000000);" vertex="1" parent="koBwlEyLXra22EPQAQiB-5">
          <mxGeometry x="470" y="300" width="120" height="90" as="geometry" />
        </mxCell>
        <mxCell id="koBwlEyLXra22EPQAQiB-78" value="rule invocation" style="edgeStyle=orthogonalEdgeStyle;shape=connector;rounded=0;orthogonalLoop=1;jettySize=auto;html=1;exitX=0.5;exitY=1;exitDx=0;exitDy=0;strokeWidth=1.5;align=center;verticalAlign=middle;fontFamily=Helvetica;fontSize=12;fontColor=light-dark(#FFFFFF,#000000);labelBackgroundColor=none;endArrow=block;endFill=0;strokeColor=#23445D;" edge="1" parent="koBwlEyLXra22EPQAQiB-5" source="koBwlEyLXra22EPQAQiB-60" target="koBwlEyLXra22EPQAQiB-74">
          <mxGeometry x="0.5385" y="2" relative="1" as="geometry">
            <mxPoint as="offset" />
          </mxGeometry>
        </mxCell>
        <mxCell id="koBwlEyLXra22EPQAQiB-60" value="&lt;div&gt;&lt;br&gt;&lt;/div&gt;&lt;div&gt;&lt;br&gt;&lt;/div&gt;&lt;div&gt;&lt;br&gt;&lt;/div&gt;&lt;div&gt;&lt;br&gt;&lt;/div&gt;AWS IoT Core Rule&lt;div&gt;&lt;span style=&quot;font-weight: 400;&quot;&gt;Match topics&lt;/span&gt;&lt;/div&gt;&lt;div&gt;&lt;span style=&quot;font-weight: 400;&quot;&gt;(e.g., sensor / #)&lt;/span&gt;&lt;/div&gt;" style="rounded=0;whiteSpace=wrap;html=1;strokeWidth=1.5;align=center;verticalAlign=middle;fontFamily=Helvetica;fontSize=12;labelBackgroundColor=none;fontStyle=1;fillColor=#182E3E;strokeColor=#FFFFFF;fontColor=light-dark(#FFFFFF,#000000);" vertex="1" parent="koBwlEyLXra22EPQAQiB-5">
          <mxGeometry x="1498" y="150" width="160" height="110" as="geometry" />
        </mxCell>
        <mxCell id="koBwlEyLXra22EPQAQiB-79" value="persist" style="edgeStyle=orthogonalEdgeStyle;shape=connector;rounded=0;orthogonalLoop=1;jettySize=auto;html=1;exitX=0.5;exitY=1;exitDx=0;exitDy=0;entryX=0.5;entryY=0;entryDx=0;entryDy=0;strokeWidth=1.5;align=center;verticalAlign=middle;fontFamily=Helvetica;fontSize=12;fontColor=light-dark(#FFFFFF,#000000);labelBackgroundColor=none;endArrow=block;endFill=0;strokeColor=#23445D;" edge="1" parent="koBwlEyLXra22EPQAQiB-5" source="koBwlEyLXra22EPQAQiB-74" target="koBwlEyLXra22EPQAQiB-75">
          <mxGeometry x="0.0467" y="-11" relative="1" as="geometry">
            <mxPoint y="1" as="offset" />
          </mxGeometry>
        </mxCell>
        <mxCell id="koBwlEyLXra22EPQAQiB-80" value="alert if anomaly" style="edgeStyle=orthogonalEdgeStyle;shape=connector;rounded=0;orthogonalLoop=1;jettySize=auto;html=1;exitX=0.5;exitY=1;exitDx=0;exitDy=0;entryX=0.5;entryY=0;entryDx=0;entryDy=0;strokeWidth=1.5;align=center;verticalAlign=middle;fontFamily=Helvetica;fontSize=12;fontColor=light-dark(#FFFFFF,#000000);labelBackgroundColor=none;endArrow=block;endFill=0;strokeColor=#23445D;" edge="1" parent="koBwlEyLXra22EPQAQiB-5" source="koBwlEyLXra22EPQAQiB-74" target="koBwlEyLXra22EPQAQiB-76">
          <mxGeometry x="0.1611" y="11" relative="1" as="geometry">
            <mxPoint y="1" as="offset" />
          </mxGeometry>
        </mxCell>
        <mxCell id="koBwlEyLXra22EPQAQiB-74" value="&lt;div&gt;&lt;br&gt;&lt;/div&gt;&lt;div&gt;&lt;br&gt;&lt;/div&gt;&lt;div&gt;&lt;br&gt;&lt;/div&gt;&lt;div&gt;&lt;br&gt;&lt;/div&gt;AWS Lambda&lt;div&gt;&lt;span style=&quot;font-weight: normal;&quot;&gt;Parse &amp;amp; route&lt;/span&gt;&lt;/div&gt;&lt;div&gt;&lt;span style=&quot;font-weight: normal;&quot;&gt;payloads&lt;/span&gt;&lt;/div&gt;" style="rounded=0;whiteSpace=wrap;html=1;strokeWidth=1.5;align=center;verticalAlign=middle;fontFamily=Helvetica;fontSize=12;labelBackgroundColor=none;fontStyle=1;fillColor=#182E3E;strokeColor=#FFFFFF;fontColor=light-dark(#FFFFFF,#000000);" vertex="1" parent="koBwlEyLXra22EPQAQiB-5">
          <mxGeometry x="1498" y="364" width="160" height="110" as="geometry" />
        </mxCell>
        <mxCell id="koBwlEyLXra22EPQAQiB-91" value="" style="group;rounded=0;labelBackgroundColor=none;fontColor=light-dark(#FFFFFF,#000000);" connectable="0" vertex="1" parent="koBwlEyLXra22EPQAQiB-5">
          <mxGeometry x="1443.0725" y="590" width="269.855" height="76" as="geometry" />
        </mxCell>
        <mxCell id="koBwlEyLXra22EPQAQiB-87" value="" style="group;rounded=0;labelBackgroundColor=none;fontColor=light-dark(#FFFFFF,#000000);" connectable="0" vertex="1" parent="koBwlEyLXra22EPQAQiB-91">
          <mxGeometry width="130.05999999999995" height="76" as="geometry" />
        </mxCell>
        <mxCell id="koBwlEyLXra22EPQAQiB-75" value="&lt;div&gt;&lt;br&gt;&lt;/div&gt;&lt;div&gt;&lt;br&gt;&lt;/div&gt;&lt;div&gt;&lt;br&gt;&lt;/div&gt;&lt;div&gt;DynamoDB&lt;/div&gt;&lt;div&gt;&lt;span style=&quot;font-weight: normal;&quot;&gt;Store logs&lt;/span&gt;&lt;/div&gt;" style="rounded=0;whiteSpace=wrap;html=1;strokeWidth=1.5;align=center;verticalAlign=middle;fontFamily=Helvetica;fontSize=12;labelBackgroundColor=none;fontStyle=1;container=0;fillColor=#182E3E;strokeColor=#FFFFFF;fontColor=light-dark(#FFFFFF,#000000);" vertex="1" parent="koBwlEyLXra22EPQAQiB-87">
          <mxGeometry width="130.06" height="76" as="geometry" />
        </mxCell>
        <mxCell id="koBwlEyLXra22EPQAQiB-84" value="" style="points=[[0,0,0],[0.25,0,0],[0.5,0,0],[0.75,0,0],[1,0,0],[0,1,0],[0.25,1,0],[0.5,1,0],[0.75,1,0],[1,1,0],[0,0.25,0],[0,0.5,0],[0,0.75,0],[1,0.25,0],[1,0.5,0],[1,0.75,0]];outlineConnect=0;dashed=0;verticalLabelPosition=bottom;verticalAlign=top;align=center;html=1;fontSize=12;fontStyle=0;aspect=fixed;shape=mxgraph.aws4.resourceIcon;resIcon=mxgraph.aws4.dynamodb;rounded=0;strokeWidth=1.5;fontFamily=Helvetica;labelBackgroundColor=none;fillColor=#182E3E;strokeColor=#FFFFFF;fontColor=light-dark(#FFFFFF,#000000);" vertex="1" parent="koBwlEyLXra22EPQAQiB-87">
          <mxGeometry x="46" y="1" width="40" height="40" as="geometry" />
        </mxCell>
        <mxCell id="koBwlEyLXra22EPQAQiB-90" value="" style="group;rounded=0;labelBackgroundColor=none;fontColor=light-dark(#FFFFFF,#000000);" connectable="0" vertex="1" parent="koBwlEyLXra22EPQAQiB-91">
          <mxGeometry x="138.14499999999998" width="131.71000000000004" height="76" as="geometry" />
        </mxCell>
        <mxCell id="koBwlEyLXra22EPQAQiB-76" value="&lt;br&gt;&lt;div&gt;&lt;div&gt;&lt;br&gt;&lt;/div&gt;&lt;div&gt;&lt;br&gt;&lt;/div&gt;&lt;div&gt;SNS&lt;/div&gt;&lt;div&gt;&lt;span style=&quot;font-weight: normal;&quot;&gt;Email/SMS alerts&lt;/span&gt;&lt;/div&gt;&lt;/div&gt;" style="rounded=0;whiteSpace=wrap;html=1;strokeWidth=1.5;align=center;verticalAlign=middle;fontFamily=Helvetica;fontSize=12;labelBackgroundColor=none;fontStyle=1;container=0;fillColor=#182E3E;strokeColor=#FFFFFF;fontColor=light-dark(#FFFFFF,#000000);" vertex="1" parent="koBwlEyLXra22EPQAQiB-90">
          <mxGeometry width="131.71" height="76" as="geometry" />
        </mxCell>
        <mxCell id="koBwlEyLXra22EPQAQiB-85" value="" style="points=[[0,0,0],[0.25,0,0],[0.5,0,0],[0.75,0,0],[1,0,0],[0,1,0],[0.25,1,0],[0.5,1,0],[0.75,1,0],[1,1,0],[0,0.25,0],[0,0.5,0],[0,0.75,0],[1,0.25,0],[1,0.5,0],[1,0.75,0]];outlineConnect=0;dashed=0;verticalLabelPosition=bottom;verticalAlign=top;align=center;html=1;fontSize=12;fontStyle=0;aspect=fixed;shape=mxgraph.aws4.resourceIcon;resIcon=mxgraph.aws4.sns;rounded=0;strokeWidth=1.5;fontFamily=Helvetica;labelBackgroundColor=none;container=1;fillColor=#182E3E;strokeColor=#FFFFFF;fontColor=light-dark(#FFFFFF,#000000);" vertex="1" parent="koBwlEyLXra22EPQAQiB-90">
          <mxGeometry x="45.85500000000002" y="1" width="40" height="40" as="geometry" />
        </mxCell>
        <mxCell id="koBwlEyLXra22EPQAQiB-42" value="readings (bypass)" style="edgeStyle=orthogonalEdgeStyle;shape=connector;rounded=0;orthogonalLoop=1;jettySize=auto;html=1;entryX=0.5;entryY=0;entryDx=0;entryDy=0;strokeWidth=1.5;align=center;verticalAlign=middle;fontFamily=Helvetica;fontSize=12;fontColor=light-dark(#FFFFFF,#000000);labelBackgroundColor=none;endArrow=block;endFill=0;dashed=1;exitX=0.5;exitY=1;exitDx=0;exitDy=0;strokeColor=#23445D;" edge="1" parent="koBwlEyLXra22EPQAQiB-5" source="koBwlEyLXra22EPQAQiB-35" target="koBwlEyLXra22EPQAQiB-41">
          <mxGeometry x="0.2" y="-10" relative="1" as="geometry">
            <mxPoint as="offset" />
          </mxGeometry>
        </mxCell>
        <mxCell id="koBwlEyLXra22EPQAQiB-45" style="edgeStyle=orthogonalEdgeStyle;shape=connector;rounded=0;orthogonalLoop=1;jettySize=auto;html=1;strokeWidth=1.5;align=center;verticalAlign=middle;fontFamily=Helvetica;fontSize=12;fontColor=light-dark(#FFFFFF,#000000);labelBackgroundColor=none;endArrow=block;endFill=0;strokeColor=#23445D;" edge="1" parent="koBwlEyLXra22EPQAQiB-5" source="koBwlEyLXra22EPQAQiB-34" target="koBwlEyLXra22EPQAQiB-36">
          <mxGeometry relative="1" as="geometry">
            <mxPoint x="680" y="540" as="targetPoint" />
          </mxGeometry>
        </mxCell>
        <mxCell id="koBwlEyLXra22EPQAQiB-47" value="inference result" style="edgeLabel;html=1;align=center;verticalAlign=middle;resizable=0;points=[];rounded=0;strokeWidth=1.5;fontFamily=Helvetica;fontSize=12;labelBackgroundColor=none;fontColor=light-dark(#FFFFFF,#000000);" connectable="0" vertex="1" parent="koBwlEyLXra22EPQAQiB-45">
          <mxGeometry x="-0.0245" relative="1" as="geometry">
            <mxPoint x="50" as="offset" />
          </mxGeometry>
        </mxCell>
        <mxCell id="koBwlEyLXra22EPQAQiB-34" value="On-device ML&lt;div&gt;&lt;ul&gt;&lt;li&gt;Preprocess -&amp;gt; infer&lt;/li&gt;&lt;li&gt;Simple anomaly score&lt;/li&gt;&lt;/ul&gt;&lt;/div&gt;" style="rounded=0;whiteSpace=wrap;html=1;strokeWidth=1.5;align=left;verticalAlign=middle;fontFamily=Helvetica;fontSize=12;labelBackgroundColor=none;fillColor=#182E3E;strokeColor=#FFFFFF;fontColor=light-dark(#FFFFFF,#000000);" vertex="1" parent="koBwlEyLXra22EPQAQiB-5">
          <mxGeometry x="600" y="360" width="160" height="100" as="geometry" />
        </mxCell>
        <mxCell id="koBwlEyLXra22EPQAQiB-43" value="readings" style="edgeStyle=orthogonalEdgeStyle;shape=connector;rounded=0;orthogonalLoop=1;jettySize=auto;html=1;exitX=0.5;exitY=1;exitDx=0;exitDy=0;entryX=0.5;entryY=0;entryDx=0;entryDy=0;strokeWidth=1.5;align=center;verticalAlign=middle;fontFamily=Helvetica;fontSize=12;fontColor=light-dark(#FFFFFF,#000000);labelBackgroundColor=none;endArrow=block;endFill=0;strokeColor=#23445D;" edge="1" parent="koBwlEyLXra22EPQAQiB-5" source="koBwlEyLXra22EPQAQiB-35" target="koBwlEyLXra22EPQAQiB-34">
          <mxGeometry y="30" relative="1" as="geometry">
            <mxPoint as="offset" />
          </mxGeometry>
        </mxCell>
        <mxCell id="koBwlEyLXra22EPQAQiB-35" value="Sensors&lt;div&gt;&lt;ul&gt;&lt;li&gt;DHT11/22 (temp/humidity)&lt;/li&gt;&lt;li&gt;MQ135 (air quality)&lt;/li&gt;&lt;li&gt;Sample every ~5s&lt;/li&gt;&lt;/ul&gt;&lt;/div&gt;" style="rounded=0;whiteSpace=wrap;html=1;strokeWidth=1.5;align=left;verticalAlign=middle;fontFamily=Helvetica;fontSize=12;labelBackgroundColor=none;fillColor=#182E3E;strokeColor=#FFFFFF;fontColor=light-dark(#FFFFFF,#000000);" vertex="1" parent="koBwlEyLXra22EPQAQiB-5">
          <mxGeometry x="600" y="150" width="160" height="110" as="geometry" />
        </mxCell>
        <mxCell id="koBwlEyLXra22EPQAQiB-36" value="MQTT Publisher (QoS 1)&lt;div&gt;&lt;ul&gt;&lt;li&gt;Topics: sensor/data, sensor/alerts&lt;/li&gt;&lt;li&gt;JSON payload&lt;/li&gt;&lt;/ul&gt;&lt;/div&gt;" style="rounded=0;whiteSpace=wrap;html=1;strokeWidth=1.5;align=left;verticalAlign=middle;fontFamily=Helvetica;fontSize=12;labelBackgroundColor=none;fillColor=#182E3E;strokeColor=#FFFFFF;fontColor=light-dark(#FFFFFF,#000000);" vertex="1" parent="koBwlEyLXra22EPQAQiB-5">
          <mxGeometry x="600" y="570" width="160" height="100" as="geometry" />
        </mxCell>
        <mxCell id="koBwlEyLXra22EPQAQiB-46" style="edgeStyle=orthogonalEdgeStyle;shape=connector;rounded=0;orthogonalLoop=1;jettySize=auto;html=1;entryX=0.5;entryY=0;entryDx=0;entryDy=0;strokeWidth=1.5;align=center;verticalAlign=middle;fontFamily=Helvetica;fontSize=12;fontColor=light-dark(#FFFFFF,#000000);labelBackgroundColor=none;endArrow=block;endFill=0;dashed=1;exitX=0.5;exitY=1;exitDx=0;exitDy=0;strokeColor=#23445D;" edge="1" parent="koBwlEyLXra22EPQAQiB-5" source="koBwlEyLXra22EPQAQiB-41" target="koBwlEyLXra22EPQAQiB-36">
          <mxGeometry relative="1" as="geometry" />
        </mxCell>
        <mxCell id="koBwlEyLXra22EPQAQiB-49" value="if ML disabled" style="edgeLabel;html=1;align=center;verticalAlign=middle;resizable=0;points=[];rounded=0;strokeWidth=1.5;fontFamily=Helvetica;fontSize=12;labelBackgroundColor=none;fontColor=light-dark(#FFFFFF,#000000);" connectable="0" vertex="1" parent="koBwlEyLXra22EPQAQiB-46">
          <mxGeometry x="-0.5522" y="-3" relative="1" as="geometry">
            <mxPoint as="offset" />
          </mxGeometry>
        </mxCell>
        <mxCell id="koBwlEyLXra22EPQAQiB-82" value="" style="points=[[0,0,0],[0.25,0,0],[0.5,0,0],[0.75,0,0],[1,0,0],[0,1,0],[0.25,1,0],[0.5,1,0],[0.75,1,0],[1,1,0],[0,0.25,0],[0,0.5,0],[0,0.75,0],[1,0.25,0],[1,0.5,0],[1,0.75,0]];outlineConnect=0;dashed=0;verticalLabelPosition=bottom;verticalAlign=top;align=center;html=1;fontSize=12;fontStyle=0;aspect=fixed;shape=mxgraph.aws4.resourceIcon;resIcon=mxgraph.aws4.iot_core;rounded=0;strokeWidth=1.5;fontFamily=Helvetica;labelBackgroundColor=none;fillColor=#182E3E;strokeColor=#FFFFFF;fontColor=light-dark(#FFFFFF,#000000);" vertex="1" parent="koBwlEyLXra22EPQAQiB-5">
          <mxGeometry x="1550" y="151" width="56" height="56" as="geometry" />
        </mxCell>
        <mxCell id="koBwlEyLXra22EPQAQiB-83" value="" style="points=[[0,0,0],[0.25,0,0],[0.5,0,0],[0.75,0,0],[1,0,0],[0,1,0],[0.25,1,0],[0.5,1,0],[0.75,1,0],[1,1,0],[0,0.25,0],[0,0.5,0],[0,0.75,0],[1,0.25,0],[1,0.5,0],[1,0.75,0]];outlineConnect=0;dashed=0;verticalLabelPosition=bottom;verticalAlign=top;align=center;html=1;fontSize=12;fontStyle=0;aspect=fixed;shape=mxgraph.aws4.resourceIcon;resIcon=mxgraph.aws4.serverless;rounded=0;strokeWidth=1.5;fontFamily=Helvetica;labelBackgroundColor=none;fillColor=#182E3E;strokeColor=#FFFFFF;fontColor=light-dark(#FFFFFF,#000000);" vertex="1" parent="koBwlEyLXra22EPQAQiB-5">
          <mxGeometry x="1550" y="365" width="56" height="56" as="geometry" />
        </mxCell>
        <mxCell id="koBwlEyLXra22EPQAQiB-68" value="Choose&lt;div&gt;one&lt;/div&gt;&lt;div&gt;deployment&lt;/div&gt;" style="rhombus;whiteSpace=wrap;html=1;rounded=0;strokeWidth=1.5;align=center;verticalAlign=middle;fontFamily=Helvetica;fontSize=12;labelBackgroundColor=none;fontStyle=1;fillColor=#182E3E;strokeColor=#FFFFFF;fontColor=light-dark(#FFFFFF,#000000);" vertex="1" parent="koBwlEyLXra22EPQAQiB-5">
          <mxGeometry x="1180" y="150" width="120" height="110" as="geometry" />
        </mxCell>
        <mxCell id="koBwlEyLXra22EPQAQiB-69" value="deployment choice" style="edgeStyle=orthogonalEdgeStyle;shape=connector;rounded=0;orthogonalLoop=1;jettySize=auto;html=1;exitX=0.997;exitY=0.295;exitDx=0;exitDy=0;entryX=0;entryY=0.5;entryDx=0;entryDy=0;strokeWidth=1.5;align=center;verticalAlign=middle;fontFamily=Helvetica;fontSize=12;fontColor=light-dark(#FFFFFF,#000000);labelBackgroundColor=none;endArrow=block;endFill=0;exitPerimeter=0;strokeColor=#23445D;" edge="1" parent="koBwlEyLXra22EPQAQiB-5" source="koBwlEyLXra22EPQAQiB-51" target="koBwlEyLXra22EPQAQiB-68">
          <mxGeometry x="0.037" y="15" relative="1" as="geometry">
            <mxPoint x="1076" y="216" as="sourcePoint" />
            <mxPoint x="1280" y="205" as="targetPoint" />
            <Array as="points" />
            <mxPoint as="offset" />
          </mxGeometry>
        </mxCell>
        <mxCell id="koBwlEyLXra22EPQAQiB-124" value="(future) OTA/config topics" style="edgeStyle=orthogonalEdgeStyle;shape=connector;rounded=0;orthogonalLoop=1;jettySize=auto;html=1;exitX=0.019;exitY=0.119;exitDx=0;exitDy=0;entryX=0;entryY=0.5;entryDx=0;entryDy=0;strokeWidth=1.5;align=center;verticalAlign=middle;fontFamily=Helvetica;fontSize=12;fontColor=light-dark(#FFFFFF,#000000);labelBackgroundColor=none;endArrow=block;endFill=0;strokeColor=#23445D;exitPerimeter=0;" edge="1" parent="koBwlEyLXra22EPQAQiB-5" source="koBwlEyLXra22EPQAQiB-33" target="yrST7zOmOCH9EI3Kk_xx-2">
          <mxGeometry x="-0.8151" y="10" relative="1" as="geometry">
            <Array as="points">
              <mxPoint x="1800" y="120" />
              <mxPoint x="620" y="120" />
            </Array>
            <mxPoint as="offset" />
          </mxGeometry>
        </mxCell>
        <mxCell id="koBwlEyLXra22EPQAQiB-121" value="&lt;div&gt;AWS IoT Device Mgmt (Jobs/Shadow)&lt;/div&gt;" style="rounded=0;whiteSpace=wrap;html=1;strokeWidth=1.5;align=center;verticalAlign=middle;fontFamily=Helvetica;fontSize=12;labelBackgroundColor=none;fontStyle=1;fillColor=#182E3E;strokeColor=#FFFFFF;fontColor=light-dark(#FFFFFF,#000000);" vertex="1" parent="koBwlEyLXra22EPQAQiB-5">
          <mxGeometry x="1680" y="150" width="160" height="110" as="geometry" />
        </mxCell>
        <mxCell id="koBwlEyLXra22EPQAQiB-125" value="job status / shadow reported" style="edgeStyle=orthogonalEdgeStyle;shape=connector;rounded=0;orthogonalLoop=1;jettySize=auto;html=1;entryX=-0.001;entryY=0.393;entryDx=0;entryDy=0;entryPerimeter=0;strokeWidth=1.5;align=center;verticalAlign=middle;fontFamily=Helvetica;fontSize=12;fontColor=light-dark(#FFFFFF,#000000);labelBackgroundColor=none;endArrow=block;endFill=0;dashed=1;strokeColor=#23445D;" edge="1" parent="koBwlEyLXra22EPQAQiB-5" target="yrST7zOmOCH9EI3Kk_xx-2">
          <mxGeometry x="-0.8349" y="10" relative="1" as="geometry">
            <mxPoint x="1820" y="260" as="sourcePoint" />
            <mxPoint x="660.0049999999999" y="167.83000000000004" as="targetPoint" />
            <Array as="points">
              <mxPoint x="1820" y="290" />
              <mxPoint x="1160" y="290" />
              <mxPoint x="1160" y="130" />
              <mxPoint x="654" y="130" />
            </Array>
            <mxPoint as="offset" />
          </mxGeometry>
        </mxCell>
        <mxCell id="koBwlEyLXra22EPQAQiB-153" value="" style="group;rounded=0;labelBackgroundColor=none;fontColor=light-dark(#FFFFFF,#000000);" connectable="0" vertex="1" parent="koBwlEyLXra22EPQAQiB-5">
          <mxGeometry x="1570" y="740" width="140" height="100" as="geometry" />
        </mxCell>
        <mxCell id="koBwlEyLXra22EPQAQiB-129" value="Legend" style="rounded=0;whiteSpace=wrap;html=1;strokeWidth=1.5;align=center;verticalAlign=middle;fontFamily=Helvetica;fontSize=12;labelBackgroundColor=none;fontStyle=1;fillColor=#182E3E;strokeColor=#FFFFFF;fontColor=light-dark(#FFFFFF,#000000);" vertex="1" parent="koBwlEyLXra22EPQAQiB-153">
          <mxGeometry x="20" y="20" width="120" height="60" as="geometry" />
        </mxCell>
        <mxCell id="koBwlEyLXra22EPQAQiB-130" value="Primary data /&lt;div&gt;control flow&lt;/div&gt;" style="edgeStyle=orthogonalEdgeStyle;shape=connector;rounded=0;orthogonalLoop=1;jettySize=auto;html=1;entryX=0.69;entryY=0.972;entryDx=0;entryDy=0;entryPerimeter=0;strokeWidth=1.5;align=center;verticalAlign=middle;fontFamily=Helvetica;fontSize=12;fontColor=light-dark(#FFFFFF,#000000);labelBackgroundColor=none;endArrow=block;endFill=0;exitX=0.69;exitY=0.025;exitDx=0;exitDy=0;exitPerimeter=0;strokeColor=#23445D;" edge="1" parent="koBwlEyLXra22EPQAQiB-153" source="koBwlEyLXra22EPQAQiB-129" target="koBwlEyLXra22EPQAQiB-129">
          <mxGeometry x="-0.6219" y="20" relative="1" as="geometry">
            <mxPoint as="offset" />
          </mxGeometry>
        </mxCell>
        <mxCell id="koBwlEyLXra22EPQAQiB-131" value="Alternative /&lt;div&gt;future path&lt;/div&gt;" style="edgeStyle=orthogonalEdgeStyle;shape=connector;rounded=0;orthogonalLoop=1;jettySize=auto;html=1;entryX=0.337;entryY=1.012;entryDx=0;entryDy=0;strokeWidth=1.5;align=center;verticalAlign=middle;fontFamily=Helvetica;fontSize=12;fontColor=light-dark(#FFFFFF,#000000);labelBackgroundColor=none;endArrow=block;endFill=0;exitX=0.331;exitY=-0.023;exitDx=0;exitDy=0;exitPerimeter=0;entryPerimeter=0;dashed=1;strokeColor=#23445D;" edge="1" parent="koBwlEyLXra22EPQAQiB-153" source="koBwlEyLXra22EPQAQiB-129" target="koBwlEyLXra22EPQAQiB-129">
          <mxGeometry x="-0.6255" y="-20" relative="1" as="geometry">
            <Array as="points">
              <mxPoint x="60" />
              <mxPoint />
              <mxPoint y="100" />
              <mxPoint x="60" y="100" />
            </Array>
            <mxPoint as="offset" />
          </mxGeometry>
        </mxCell>
        <mxCell id="koBwlEyLXra22EPQAQiB-64" value="Variant B - Direct to AWS" parent="0" />
        <mxCell id="koBwlEyLXra22EPQAQiB-66" value="d&lt;span style=&quot;background-color: light-dark(#ffffff, var(--ge-dark-color, #121212));&quot;&gt;irect to AWS&lt;/span&gt;&lt;div&gt;&lt;span style=&quot;background-color: light-dark(#ffffff, var(--ge-dark-color, #121212));&quot;&gt;(MQTT message, JSON)&lt;/span&gt;&lt;/div&gt;" style="edgeStyle=orthogonalEdgeStyle;shape=connector;rounded=0;orthogonalLoop=1;jettySize=auto;html=1;exitX=1;exitY=0;exitDx=0;exitDy=0;entryX=0;entryY=0.25;entryDx=0;entryDy=0;strokeWidth=1.5;align=center;verticalAlign=middle;fontFamily=Helvetica;fontSize=12;fontColor=light-dark(#FFFFFF,#000000);labelBackgroundColor=none;endArrow=block;endFill=0;strokeColor=#23445D;" edge="1" parent="koBwlEyLXra22EPQAQiB-64" source="koBwlEyLXra22EPQAQiB-68" target="koBwlEyLXra22EPQAQiB-60">
          <mxGeometry y="18" relative="1" as="geometry">
            <mxPoint x="1076" y="216" as="sourcePoint" />
            <mxPoint x="1156" y="410" as="targetPoint" />
            <mxPoint as="offset" />
          </mxGeometry>
        </mxCell>
        <mxCell id="koBwlEyLXra22EPQAQiB-119" value="" style="points=[[0,0,0],[0.25,0,0],[0.5,0,0],[0.75,0,0],[1,0,0],[0,1,0],[0.25,1,0],[0.5,1,0],[0.75,1,0],[1,1,0],[0,0.25,0],[0,0.5,0],[0,0.75,0],[1,0.25,0],[1,0.5,0],[1,0.75,0]];outlineConnect=0;dashed=0;verticalLabelPosition=bottom;verticalAlign=top;align=center;html=1;fontSize=12;fontStyle=0;aspect=fixed;shape=mxgraph.aws4.resourceIcon;resIcon=mxgraph.aws4.iot_core;rounded=0;strokeWidth=1.5;fontFamily=Helvetica;labelBackgroundColor=none;fillColor=#182E3E;strokeColor=#FFFFFF;fontColor=light-dark(#FFFFFF,#000000);" vertex="1" parent="koBwlEyLXra22EPQAQiB-64">
          <mxGeometry x="990" y="162" width="56" height="56" as="geometry" />
        </mxCell>
        <mxCell id="koBwlEyLXra22EPQAQiB-63" value="Variant A - Mosquitto bridge" style="" visible="0" parent="0" />
        <mxCell id="koBwlEyLXra22EPQAQiB-71" value="bridge to AWS IoT&lt;div&gt;(sensor / #)&lt;/div&gt;" style="edgeStyle=orthogonalEdgeStyle;shape=connector;rounded=0;orthogonalLoop=1;jettySize=auto;html=1;exitX=1;exitY=1;exitDx=0;exitDy=0;entryX=0;entryY=0.75;entryDx=0;entryDy=0;strokeWidth=1.5;align=center;verticalAlign=middle;fontFamily=Helvetica;fontSize=12;fontColor=light-dark(#FFFFFF,#000000);labelBackgroundColor=none;endArrow=block;endFill=0;dashed=1;strokeColor=#23445D;" edge="1" parent="koBwlEyLXra22EPQAQiB-63" source="koBwlEyLXra22EPQAQiB-68" target="koBwlEyLXra22EPQAQiB-60">
          <mxGeometry x="-0.0351" y="-17" relative="1" as="geometry">
            <mxPoint x="1340" y="310" as="sourcePoint" />
            <mxPoint x="1510" y="310" as="targetPoint" />
            <mxPoint as="offset" />
          </mxGeometry>
        </mxCell>
        <mxCell id="koBwlEyLXra22EPQAQiB-94" value="" style="shape=mxgraph.networks2.icon;aspect=fixed;network2IconShadow=1;network2bgFillColor=none;network2Icon=mxgraph.networks2.rack_cabinet;network2IconW=0.4721;network2IconH=1;rounded=0;strokeWidth=1.5;align=center;verticalAlign=middle;fontFamily=Helvetica;fontSize=12;labelBackgroundColor=none;fillColor=#182E3E;strokeColor=#FFFFFF;fontColor=light-dark(#FFFFFF,#000000);" vertex="1" parent="koBwlEyLXra22EPQAQiB-63">
          <mxGeometry x="950" y="165" width="26.44" height="56" as="geometry" />
        </mxCell>
      </root>
    </mxGraphModel>
  </diagram>
</mxfile>
